<svg width="33" height="26" viewBox="0 0 33 26" fill="none" xmlns="http://www.w3.org/2000/svg">
<path d="M31.5013 4.7296C30.8703 4.06862 29.999 3.67804 29.0076 3.67804H24.0202V3.61795C24.0202 2.86683 23.7197 2.14576 23.209 1.66505C22.6982 1.15429 22.0072 0.853844 21.2561 0.853844H12.2427C11.4615 0.853844 10.7705 1.15429 10.2597 1.66505C9.74899 2.17581 9.44854 2.86683 9.44854 3.61795V3.67804H4.49119C3.49971 3.67804 2.62842 4.06862 1.99748 4.7296C1.36655 5.36053 0.945923 6.26187 0.945923 7.2233V22.1855C0.945923 23.177 1.3365 24.0483 1.99748 24.6792C2.62842 25.3101 3.52976 25.7308 4.49119 25.7308H29.0076C29.999 25.7308 30.8703 25.3402 31.5013 24.6792C32.1322 24.0483 32.5528 23.1469 32.5528 22.1855V7.2233C32.5528 6.23183 32.1623 5.36053 31.5013 4.7296ZM30.9905 22.1855H30.9605C30.9605 22.7263 30.7502 23.207 30.3896 23.5676C30.0291 23.9281 29.5484 24.1384 29.0076 24.1384H4.49119C3.95038 24.1384 3.46967 23.9281 3.10913 23.5676C2.7486 23.207 2.53829 22.7263 2.53829 22.1855V7.2233C2.53829 6.6825 2.7486 6.20178 3.10913 5.84125C3.46967 5.48071 3.95038 5.2704 4.49119 5.2704H10.2898C10.7405 5.2704 11.101 4.90986 11.101 4.4592V3.5879C11.101 3.25741 11.2212 2.95697 11.4315 2.74665C11.6418 2.53634 11.9422 2.41616 12.2727 2.41616H21.2561C21.5866 2.41616 21.887 2.53634 22.0973 2.74665C22.3076 2.95697 22.4278 3.25741 22.4278 3.5879V4.4592C22.4278 4.90986 22.7883 5.2704 23.239 5.2704H29.0376C29.5784 5.2704 30.0591 5.48071 30.4197 5.84125C30.7802 6.20178 30.9905 6.6825 30.9905 7.2233V22.1855Z" fill="black" fill-opacity="0.85"/>
<path d="M16.7494 7.31343C14.7063 7.31343 12.8436 8.15468 11.5216 9.47664C10.1696 10.8286 9.3584 12.6614 9.3584 14.7044C9.3584 16.7474 10.1996 18.6102 11.5216 19.9322C12.8736 21.2842 14.7063 22.0954 16.7494 22.0954C18.7924 22.0954 20.6552 21.2541 21.9771 19.9322C23.3291 18.5802 24.1403 16.7474 24.1403 14.7044C24.1403 12.6614 23.2991 10.7986 21.9771 9.47664C20.6552 8.15468 18.7924 7.31343 16.7494 7.31343ZM20.8354 18.8205C19.7839 19.842 18.3417 20.503 16.7494 20.503C15.157 20.503 13.7149 19.842 12.6633 18.8205C11.6117 17.769 10.9808 16.3268 10.9808 14.7344C10.9808 13.1421 11.6418 11.6999 12.6633 10.6484C13.7149 9.59682 15.157 8.96588 16.7494 8.96588C18.3417 8.96588 19.7839 9.62686 20.8354 10.6484C21.887 11.6999 22.5179 13.1421 22.5179 14.7344C22.548 16.3268 21.887 17.769 20.8354 18.8205Z" fill="black" fill-opacity="0.85"/>
<path d="M27.4452 10.2278C28.2583 10.2278 28.9174 9.56863 28.9174 8.75557C28.9174 7.9425 28.2583 7.28338 27.4452 7.28338C26.6321 7.28338 25.973 7.9425 25.973 8.75557C25.973 9.56863 26.6321 10.2278 27.4452 10.2278Z" fill="black" fill-opacity="0.85"/>
</svg>
