<svg width="33" height="29" viewBox="0 0 33 29" fill="none" xmlns="http://www.w3.org/2000/svg">
<path d="M30.153 2.7209L8.40033 0.250868C7.55609 0.13084 6.70072 0.377302 6.0498 0.92818C5.39895 1.43285 4.98175 2.18092 4.89443 2.99984L4.49607 6.26675H3.26094C1.50795 6.26675 0.193215 7.82048 0.193215 9.57347V25.8681C0.149063 27.5397 1.46838 28.9307 3.14007 28.9748C3.18034 28.9759 3.22068 28.9761 3.26094 28.9756H25.1331C26.8861 28.9756 28.4797 27.621 28.4797 25.8681V25.2306C29.0232 25.1256 29.5388 24.9085 29.9937 24.5932C30.6392 24.0497 31.0525 23.2801 31.149 22.4418L32.9817 6.26675C33.1685 4.50972 31.9076 2.92915 30.153 2.7209ZM26.8861 25.8681C26.8861 26.7446 26.0096 27.382 25.1331 27.382H3.26094C2.46917 27.4052 1.80848 26.7822 1.78522 25.9904C1.784 25.9497 1.78454 25.9089 1.78682 25.8681V22.9199L7.96208 18.3781C8.7039 17.8086 9.74877 17.8592 10.4322 18.4976L14.7748 22.3223C15.4342 22.876 16.2644 23.1855 17.1254 23.1988C17.7986 23.207 18.4607 23.0277 19.0377 22.6808L26.8862 18.1391V25.8681H26.8861ZM26.8861 16.2666L18.201 21.3263C17.4552 21.7681 16.5112 21.6881 15.8504 21.1271L11.468 17.2626C10.212 16.1833 8.37615 16.1171 7.04571 17.1032L1.78682 20.9278V9.57347C1.78682 8.69697 2.38445 7.86036 3.26094 7.86036H25.1331C26.0696 7.89918 26.8258 8.63826 26.8861 9.57347V16.2666ZM31.3896 6.05163C31.3891 6.05689 31.3886 6.06223 31.388 6.06749L29.5155 22.2426C29.5187 22.662 29.3275 23.0592 28.9976 23.3183C28.8382 23.4776 28.4797 23.5573 28.4797 23.637V9.57347C28.4168 7.75848 26.9487 6.30785 25.1331 6.26675H6.0896L6.44816 3.15922C6.52594 2.75681 6.73633 2.39215 7.04578 2.12335C7.39519 1.88177 7.81765 1.76914 8.24103 1.8046L29.9539 4.31451C30.83 4.3977 31.4728 5.17544 31.3896 6.05163Z" fill="black" fill-opacity="0.85"/>
</svg>
