<svg width="173" height="198" viewBox="0 0 173 198" fill="none" xmlns="http://www.w3.org/2000/svg">
<path d="M91.442 140.864C81.458 140.864 72.434 138.656 64.37 134.24C56.402 129.824 50.114 123.728 45.506 115.952C40.994 108.08 38.738 99.296 38.738 89.6C38.738 79.904 40.994 71.168 45.506 63.392C50.114 55.52 56.45 49.376 64.514 44.96C72.578 40.544 81.602 38.336 91.586 38.336C99.074 38.336 105.986 39.584 112.322 42.08C118.658 44.576 124.034 48.224 128.45 53.024L121.682 59.792C113.81 51.824 103.874 47.84 91.874 47.84C83.906 47.84 76.658 49.664 70.13 53.312C63.602 56.96 58.466 61.952 54.722 68.288C51.074 74.624 49.25 81.728 49.25 89.6C49.25 97.472 51.074 104.576 54.722 110.912C58.466 117.248 63.602 122.24 70.13 125.888C76.658 129.536 83.906 131.36 91.874 131.36C103.97 131.36 113.906 127.328 121.682 119.264L128.45 126.032C124.034 130.832 118.61 134.528 112.178 137.12C105.842 139.616 98.93 140.864 91.442 140.864Z" fill="black"/>
<path d="M74.603 89.4H67.787V115.032C70.923 117.784 74.635 119.896 78.923 121.368C83.211 122.84 87.723 123.576 92.459 123.576C99.179 123.576 105.227 122.104 110.603 119.16C115.979 116.216 120.203 112.152 123.275 106.968C126.347 101.72 127.883 95.864 127.883 89.4C127.883 82.936 126.347 77.112 123.275 71.928C120.203 66.68 115.979 62.584 110.603 59.64C105.227 56.696 99.147 55.224 92.363 55.224C87.243 55.224 82.539 56.056 78.251 57.72C73.963 59.32 70.347 61.72 67.403 64.92L71.819 69.432C77.131 64.184 83.883 61.56 92.075 61.56C97.515 61.56 102.443 62.776 106.859 65.208C111.211 67.576 114.635 70.904 117.131 75.192C119.627 79.416 120.875 84.152 120.875 89.4C120.875 94.648 119.627 99.384 117.131 103.608C114.635 107.832 111.211 111.16 106.859 113.592C102.507 116.024 97.611 117.24 92.171 117.24C85.259 117.24 79.403 115.512 74.603 112.056V89.4Z" fill="black"/>
<path d="M15.5207 189.216C13.0247 189.216 10.7687 188.664 8.75266 187.56C6.76066 186.456 5.18866 184.932 4.03666 182.988C2.90866 181.02 2.34466 178.824 2.34466 176.4C2.34466 173.976 2.90866 171.792 4.03666 169.848C5.18866 167.88 6.77266 166.344 8.78866 165.24C10.8047 164.136 13.0607 163.584 15.5567 163.584C17.4287 163.584 19.1567 163.896 20.7407 164.52C22.3247 165.144 23.6687 166.056 24.7727 167.256L23.0807 168.948C21.1127 166.956 18.6287 165.96 15.6287 165.96C13.6367 165.96 11.8247 166.416 10.1927 167.328C8.56066 168.24 7.27666 169.488 6.34066 171.072C5.42866 172.656 4.97266 174.432 4.97266 176.4C4.97266 178.368 5.42866 180.144 6.34066 181.728C7.27666 183.312 8.56066 184.56 10.1927 185.472C11.8247 186.384 13.6367 186.84 15.6287 186.84C18.6527 186.84 21.1367 185.832 23.0807 183.816L24.7727 185.508C23.6687 186.708 22.3127 187.632 20.7047 188.28C19.1207 188.904 17.3927 189.216 15.5207 189.216ZM45.6228 182.268H31.5828L28.5588 189H25.7868L37.3068 163.8H39.9348L51.4548 189H48.6468L45.6228 182.268ZM44.6508 180.108L38.6028 166.572L32.5548 180.108H44.6508ZM65.0555 163.8C68.2715 163.8 70.7915 164.568 72.6155 166.104C74.4395 167.64 75.3515 169.752 75.3515 172.44C75.3515 175.128 74.4395 177.24 72.6155 178.776C70.7915 180.288 68.2715 181.044 65.0555 181.044H58.2875V189H55.6235V163.8H65.0555ZM64.9835 178.704C67.4795 178.704 69.3875 178.164 70.7075 177.084C72.0275 175.98 72.6875 174.432 72.6875 172.44C72.6875 170.4 72.0275 168.84 70.7075 167.76C69.3875 166.656 67.4795 166.104 64.9835 166.104H58.2875V178.704H64.9835ZM79.4491 178.128H88.8811V180.36H79.4491V178.128ZM113.168 176.4H115.724V186.012C114.548 187.044 113.156 187.836 111.548 188.388C109.94 188.94 108.248 189.216 106.472 189.216C103.952 189.216 101.684 188.664 99.6684 187.56C97.6524 186.456 96.0684 184.932 94.9164 182.988C93.7644 181.02 93.1884 178.824 93.1884 176.4C93.1884 173.976 93.7644 171.792 94.9164 169.848C96.0684 167.88 97.6524 166.344 99.6684 165.24C101.684 164.136 103.964 163.584 106.508 163.584C108.428 163.584 110.192 163.896 111.8 164.52C113.408 165.12 114.764 166.02 115.868 167.22L114.212 168.912C112.22 166.944 109.688 165.96 106.616 165.96C104.576 165.96 102.728 166.416 101.072 167.328C99.4404 168.216 98.1564 169.464 97.2204 171.072C96.2844 172.656 95.8164 174.432 95.8164 176.4C95.8164 178.368 96.2844 180.144 97.2204 181.728C98.1564 183.312 99.4404 184.56 101.072 185.472C102.704 186.384 104.54 186.84 106.58 186.84C109.172 186.84 111.368 186.192 113.168 184.896V176.4ZM141.084 186.696V189H123.264V163.8H140.544V166.104H125.928V175.068H138.96V177.336H125.928V186.696H141.084ZM168.406 163.8V189H166.21L150.01 168.552V189H147.346V163.8H149.542L165.778 184.248V163.8H168.406Z" fill="black"/>
</svg>
