<svg width="414" height="450" viewBox="0 0 414 450" fill="none" xmlns="http://www.w3.org/2000/svg">
<g filter="url(#filter0_dd)">
<circle cx="210.5" cy="229.5" r="113.5" fill="#3F3D56"/>
<circle cx="210.5" cy="229.5" r="113" stroke="black"/>
</g>
<path d="M432 225C432 349.264 331.264 450 207 450C82.7359 450 -18 349.264 -18 225C-18 100.736 82.7359 0 207 0C331.264 0 432 100.736 432 225ZM-9.28259 225C-9.28259 344.45 87.5504 441.283 207 441.283C326.45 441.283 423.283 344.45 423.283 225C423.283 105.55 326.45 8.71741 207 8.71741C87.5504 8.71741 -9.28259 105.55 -9.28259 225Z" fill="#F5F8FA"/>
<mask id="mask0" mask-type="alpha" maskUnits="userSpaceOnUse" x="97" y="116" width="227" height="227">
<circle cx="210.5" cy="229.5" r="113.5" fill="#3F3D56"/>
</mask>
<g mask="url(#mask0)">
<rect x="97" y="116" width="227" height="227" fill="#1DA1F2"/>
<path d="M221.116 300.563C222.446 297.084 226.345 295.341 229.825 296.671C233.27 297.988 235.012 301.823 233.756 305.276L233.717 305.38L181.004 443.285C179.674 446.765 175.775 448.507 172.295 447.177C168.85 445.86 167.108 442.026 168.364 438.573L168.403 438.468L221.116 300.563Z" fill="#EBBAAA"/>
<path d="M185.355 307.659C188.939 306.789 192.549 308.959 193.473 312.515L193.5 312.624L224.229 439.286C225.107 442.907 222.884 446.553 219.264 447.432C215.68 448.301 212.07 446.131 211.146 442.575L211.118 442.467L180.39 315.804C179.512 312.184 181.734 308.537 185.355 307.659Z" fill="#EBBAAA"/>
<path d="M206.056 315.838L236.91 318.961L190.692 433.04C190.692 433.04 183.072 432.29 178.7 430.916C174.328 429.542 167.333 424.795 167.333 424.795L206.056 315.838Z" fill="black"/>
<path d="M169.844 315.18L205.807 321.958L228.291 438.753C228.291 438.753 225.043 441.076 217.299 442.251C209.554 443.422 203.808 442.251 203.808 442.251L169.844 315.18Z" fill="#252424"/>
<path d="M211.053 337.231C205.957 328.937 189.36 322.034 181.698 319.619H213.551C214.842 328.946 216.149 345.526 211.053 337.231Z" fill="black"/>
<path d="M177.505 312.206L237.784 317.53L236.34 324.633L176.87 319.31L177.505 312.206Z" fill="black"/>
<path fill-rule="evenodd" clip-rule="evenodd" d="M209.247 313.672L215.231 314.06C215.919 314.104 216.441 314.699 216.396 315.387L215.831 324.113C215.787 324.801 215.192 325.323 214.504 325.278L208.521 324.891C207.832 324.846 207.31 324.252 207.355 323.564L207.92 314.838C207.965 314.15 208.559 313.628 209.247 313.672ZM213.419 322.705L213.822 316.472L210.332 316.246L209.929 322.479L213.419 322.705Z" fill="#252424"/>
<path d="M110.06 207.967C113.273 203.999 119.094 203.388 123.061 206.601C143.145 222.865 154.053 230.488 177.99 244.973C182.358 247.616 183.756 253.3 181.113 257.667C178.47 262.035 172.787 263.433 168.419 260.79C143.774 245.877 132.177 237.772 111.427 220.968C107.459 217.755 106.848 211.934 110.06 207.967Z" fill="#FBD2C5"/>
<path d="M281.614 165.425C284.038 160.933 289.645 159.256 294.138 161.68C298.631 164.104 300.307 169.712 297.883 174.204C283.841 200.227 267.741 224.518 248.625 248.413C245.436 252.4 239.619 253.046 235.633 249.857C231.646 246.668 231 240.851 234.189 236.864C252.614 213.833 268.1 190.469 281.614 165.425Z" fill="#FBD2C5"/>
<path d="M227.672 243.354C222.816 250.228 224.453 259.736 231.327 264.592L232.368 265.426C239.242 270.282 248.752 268.644 253.608 261.77L301.319 188.359L275.383 169.94L227.672 243.354Z" fill="black"/>
<path d="M188.643 282.952C195.399 287.971 204.943 286.564 209.963 279.808L210.822 278.788C215.842 272.032 214.432 262.486 207.677 257.466L135.433 208.005L116.396 233.491L188.643 282.952Z" fill="black"/>
<path d="M277.382 318.337C279.78 312.941 280.588 309.968 279.755 307.345C265.865 263.576 247.153 252.883 239.533 253.008L182.948 268.997L139.978 340.072C139.978 340.072 171.706 338.572 181.199 350.563L223.545 339.447C231.789 344.069 239.034 354.312 252.399 352.313C265.765 350.315 274.384 325.083 277.382 318.337Z" fill="black"/>
<path d="M175.406 249.862C175.591 241.733 181.695 235.17 189.318 234.904L207.115 234.283C208.565 234.235 210.017 234.315 211.453 234.527L228.825 237.088C236.489 238.218 239.43 245.726 238.659 253.932C238.659 253.932 241.657 275.169 241.657 288.924C241.657 302.679 237.021 318.7 237.021 318.7C236.91 319.21 236.704 319.481 236.302 319.459L171.857 315.769C171.471 315.747 171.177 315.389 171.209 314.977L174.62 284.39L175.406 249.862Z" fill="#F3F6F9"/>
<path d="M227.167 258.753C216.175 253.856 215.758 244.471 216.924 240.39L233.163 226.65C235.37 228.024 242.856 234.744 255.147 250.633C267.024 265.986 276.514 294.938 280.146 308.819C280.361 309.492 280.473 309.95 280.505 310.217C280.392 309.77 280.273 309.304 280.146 308.819C279.255 306.033 276.586 299.566 270.387 287.732C260.769 269.37 240.907 264.873 227.167 258.753Z" fill="#252424"/>
<path d="M192.442 254.506L204.433 242.889L192.442 231.771L174.704 237.143C174.704 237.143 165.71 246.261 164.461 265.123C163.212 283.985 129.486 334.45 137.855 339.321C146.224 344.193 176.203 329.828 181.824 320.335C187.445 310.841 192.442 254.506 192.442 254.506Z" fill="#252424"/>
<path fill-rule="evenodd" clip-rule="evenodd" d="M204.433 242.922L192.441 254.539C192.441 254.539 187.748 307.452 182.342 319.359C181.8 319.597 181.33 319.651 180.949 319.494C176.702 317.745 173.704 252.791 173.704 252.791L188.694 251.167L185.196 241.548L196.688 235.742L204.433 242.922Z" fill="black"/>
<path d="M139.978 251.417L161.213 221.562L173.205 229.307L152.095 260.41L139.978 251.417Z" fill="white"/>
<rect x="199.936" y="224.277" width="18.9867" height="28.7299" rx="9.49336" fill="#EBBAAA"/>
<path d="M239.533 217.066C247.467 217.066 253.898 210.634 253.898 202.701C253.898 194.767 247.467 188.336 239.533 188.336C231.6 188.336 225.168 194.767 225.168 202.701C225.168 210.634 231.6 217.066 239.533 217.066Z" fill="#EBBAAA"/>
<path d="M179.325 217.066C171.392 217.066 164.96 210.634 164.96 202.701C164.96 194.767 171.392 188.336 179.325 188.336C187.259 188.336 193.69 194.767 193.69 202.701C193.69 210.634 187.259 217.066 179.325 217.066Z" fill="#EBBAAA"/>
<path d="M173.437 181.702C171.113 160.578 187.654 142.118 208.905 142.118C230.174 142.118 246.72 160.606 244.368 181.745L240.563 215.946C238.768 232.087 225.124 244.296 208.884 244.296C192.629 244.296 178.979 232.065 177.201 215.908L173.437 181.702Z" fill="#F6DDD6"/>
<path d="M246.577 166.997C246.739 165.475 245.602 164.127 244.077 164.027C242.493 163.924 241.166 165.205 241.213 166.79L242.249 193.647C242.263 194.096 242.365 194.459 242.811 194.488C243.277 194.519 243.433 194.177 243.483 193.715L246.577 166.997Z" fill="#393939"/>
<path d="M224.822 196.33C226.453 196.33 227.779 197.632 227.819 199.254L227.82 199.328V202.576C227.82 204.231 226.477 205.574 224.822 205.574C223.191 205.574 221.864 204.271 221.825 202.65L221.824 202.576V199.328C221.824 197.672 223.166 196.33 224.822 196.33Z" fill="black"/>
<path d="M193.594 196.33C195.225 196.33 196.551 197.632 196.591 199.254L196.592 199.328V202.576C196.592 204.231 195.249 205.574 193.594 205.574C191.963 205.574 190.636 204.271 190.597 202.65L190.596 202.576V199.328C190.596 197.672 191.938 196.33 193.594 196.33Z" fill="black"/>
<path d="M233.31 192.52C234.961 192.4 236.398 193.641 236.519 195.292C236.637 196.919 235.435 198.337 233.821 198.494L233.747 198.5L219.893 199.513C218.241 199.633 216.805 198.392 216.684 196.741C216.565 195.114 217.768 193.696 219.382 193.539L219.456 193.533L233.31 192.52Z" fill="#393939"/>
<path d="M181.456 195.339C181.567 193.712 182.957 192.477 184.577 192.548L184.651 192.552L198.51 193.499C200.162 193.612 201.41 195.042 201.297 196.694C201.186 198.321 199.796 199.556 198.175 199.485L198.102 199.481L184.242 198.534C182.591 198.421 181.343 196.991 181.456 195.339Z" fill="#393939"/>
<path d="M207.544 202.778L211.239 204.872C210.125 206.836 209.491 208.935 209.559 210.359C209.608 211.388 209.865 211.683 210.83 211.694L210.89 211.694V215.941C207.493 215.941 205.47 213.775 205.317 210.562C205.208 208.278 206.034 205.493 207.46 202.928L207.544 202.778Z" fill="#EBBAAA"/>
<path d="M243.406 191.833C243.53 190.834 244.03 189.585 244.78 189.335C245.529 189.085 245.983 153.296 235.286 144.69C224.59 136.084 198.988 132.592 181.242 144.69C163.495 156.788 177.826 181.715 171.85 188.554C169.671 191.046 173.868 191.96 173.706 193.332L174.645 185.81C174.645 185.81 179.704 176.35 183.518 164.607C186.557 155.253 205.641 160.865 209.409 160.865C213.177 160.865 230.455 155.496 233.476 164.607C237.487 176.705 239.55 181.013 241.657 184.463C242.183 189.286 243.17 193.714 243.406 191.833Z" fill="#393939"/>
<path d="M178.239 141.241C170.457 149.238 169.07 171.562 172.889 181.733C172.889 187.422 156.139 186.307 153.382 194.987C151.136 202.055 172.483 199.338 195.334 194.987C218.186 190.637 272.681 172.541 264.265 169.909C258.915 168.236 254.233 168.682 247.908 171.562C247.908 159.068 231.664 132 219.422 132C211.027 132 208.409 134.364 203.059 136.372C197.708 138.38 190.005 129.151 178.239 141.241Z" fill="black"/>
<path fill-rule="evenodd" clip-rule="evenodd" d="M250.568 159.147C249.855 157.93 248.432 157.625 245.997 159.083C241.212 161.948 223.294 164.306 207.311 166.41C193.172 168.272 180.546 169.933 179.867 171.57C178.42 175.058 181.092 181.133 182.539 181.921C183.986 182.708 205.028 180.548 213.934 179.558C222.841 178.568 240.283 173.821 248.001 171.57C249.854 169.631 251.6 163.906 251.045 160.579C250.895 160.107 250.736 159.629 250.568 159.147Z" fill="white"/>
<path d="M219.797 224.31H198.562C200.602 226.101 205.532 229.682 208.93 229.682C212.327 229.682 217.59 226.101 219.797 224.31Z" fill="white"/>
<path d="M226.792 221.562C230.31 221.562 233.162 218.71 233.162 215.192C233.162 211.673 230.31 208.821 226.792 208.821C223.274 208.821 220.421 211.673 220.421 215.192C220.421 218.71 223.274 221.562 226.792 221.562Z" fill="#FBD2C5"/>
<path d="M192.316 221.562C195.834 221.562 198.687 218.71 198.687 215.192C198.687 211.673 195.834 208.821 192.316 208.821C188.798 208.821 185.946 211.673 185.946 215.192C185.946 218.71 188.798 221.562 192.316 221.562Z" fill="#FBD2C5"/>
</g>
<defs>
<filter id="filter0_dd" x="87" y="106" width="245" height="245" filterUnits="userSpaceOnUse" color-interpolation-filters="sRGB">
<feFlood flood-opacity="0" result="BackgroundImageFix"/>
<feColorMatrix in="SourceAlpha" type="matrix" values="0 0 0 0 0 0 0 0 0 0 0 0 0 0 0 0 0 0 127 0"/>
<feOffset dx="4" dy="4"/>
<feGaussianBlur stdDeviation="2"/>
<feColorMatrix type="matrix" values="0 0 0 0 0 0 0 0 0 0 0 0 0 0 0 0 0 0 0.25 0"/>
<feBlend mode="normal" in2="BackgroundImageFix" result="effect1_dropShadow"/>
<feColorMatrix in="SourceAlpha" type="matrix" values="0 0 0 0 0 0 0 0 0 0 0 0 0 0 0 0 0 0 127 0"/>
<feMorphology radius="2" operator="erode" in="SourceAlpha" result="effect2_dropShadow"/>
<feOffset dx="-4" dy="-4"/>
<feGaussianBlur stdDeviation="4"/>
<feColorMatrix type="matrix" values="0 0 0 0 1 0 0 0 0 1 0 0 0 0 1 0 0 0 1 0"/>
<feBlend mode="normal" in2="effect1_dropShadow" result="effect2_dropShadow"/>
<feBlend mode="normal" in="SourceGraphic" in2="effect2_dropShadow" result="shape"/>
</filter>
</defs>
</svg>
