<svg width="450" height="450" viewBox="0 0 450 450" fill="none" xmlns="http://www.w3.org/2000/svg">
<path d="M450 225C450 349.264 349.264 450 225 450C100.736 450 0 349.264 0 225C0 100.736 100.736 0 225 0C349.264 0 450 100.736 450 225ZM8.71741 225C8.71741 344.45 105.55 441.283 225 441.283C344.45 441.283 441.283 344.45 441.283 225C441.283 105.55 344.45 8.71741 225 8.71741C105.55 8.71741 8.71741 105.55 8.71741 225Z" fill="#F5F8FA"/>
<mask id="mask0" mask-type="alpha" maskUnits="userSpaceOnUse" x="115" y="116" width="227" height="227">
<circle cx="228.5" cy="229.5" r="113.5" fill="#3F3D56"/>
</mask>
<g mask="url(#mask0)">
<rect x="115" y="116" width="227" height="227" fill="#1DA1F2"/>
<path d="M239.116 300.563C240.446 297.084 244.345 295.341 247.825 296.671C251.27 297.988 253.012 301.823 251.756 305.276L251.717 305.38L199.004 443.285C197.674 446.765 193.775 448.507 190.295 447.177C186.85 445.86 185.108 442.026 186.364 438.573L186.403 438.468L239.116 300.563Z" fill="#EBBAAA"/>
<path d="M203.355 307.659C206.939 306.789 210.549 308.959 211.473 312.515L211.5 312.624L242.229 439.286C243.107 442.907 240.884 446.553 237.264 447.432C233.68 448.301 230.07 446.131 229.146 442.575L229.118 442.467L198.39 315.804C197.512 312.184 199.734 308.537 203.355 307.659Z" fill="#EBBAAA"/>
<path d="M224.056 315.838L254.91 318.961L208.692 433.04C208.692 433.04 201.072 432.29 196.7 430.916C192.328 429.542 185.333 424.795 185.333 424.795L224.056 315.838Z" fill="black"/>
<path d="M187.844 315.18L223.807 321.958L246.291 438.753C246.291 438.753 243.043 441.076 235.299 442.251C227.554 443.422 221.808 442.251 221.808 442.251L187.844 315.18Z" fill="#252424"/>
<path d="M229.053 337.231C223.957 328.937 207.36 322.034 199.698 319.619H231.551C232.842 328.946 234.149 345.526 229.053 337.231Z" fill="black"/>
<path d="M195.505 312.206L255.784 317.53L254.34 324.633L194.87 319.31L195.505 312.206Z" fill="black"/>
<path fill-rule="evenodd" clip-rule="evenodd" d="M227.247 313.672L233.231 314.06C233.919 314.104 234.441 314.699 234.396 315.387L233.831 324.113C233.787 324.801 233.192 325.323 232.504 325.278L226.521 324.891C225.832 324.846 225.31 324.252 225.355 323.564L225.92 314.838C225.965 314.15 226.559 313.628 227.247 313.672ZM231.419 322.705L231.822 316.472L228.332 316.246L227.929 322.479L231.419 322.705Z" fill="#252424"/>
<path d="M128.06 207.967C131.273 203.999 137.094 203.388 141.061 206.601C161.145 222.865 172.053 230.488 195.99 244.973C200.358 247.616 201.756 253.3 199.113 257.667C196.47 262.035 190.787 263.433 186.419 260.79C161.774 245.877 150.177 237.772 129.427 220.968C125.459 217.755 124.848 211.934 128.06 207.967Z" fill="#FBD2C5"/>
<path d="M299.614 165.425C302.038 160.933 307.645 159.256 312.138 161.68C316.631 164.104 318.307 169.712 315.883 174.204C301.841 200.227 285.741 224.518 266.625 248.413C263.436 252.4 257.619 253.046 253.633 249.857C249.646 246.668 249 240.851 252.189 236.864C270.614 213.833 286.1 190.469 299.614 165.425Z" fill="#FBD2C5"/>
<path d="M245.672 243.354C240.816 250.228 242.453 259.736 249.327 264.592L250.368 265.426C257.242 270.282 266.752 268.644 271.608 261.77L319.319 188.359L293.383 169.94L245.672 243.354Z" fill="black"/>
<path d="M206.643 282.952C213.399 287.971 222.943 286.564 227.963 279.808L228.822 278.788C233.842 272.032 232.432 262.486 225.677 257.466L153.433 208.005L134.396 233.491L206.643 282.952Z" fill="black"/>
<path d="M295.382 318.337C297.78 312.941 298.588 309.968 297.755 307.345C283.865 263.576 265.153 252.883 257.533 253.008L200.948 268.997L157.978 340.072C157.978 340.072 189.706 338.572 199.199 350.563L241.545 339.447C249.789 344.069 257.034 354.312 270.399 352.313C283.765 350.315 292.384 325.083 295.382 318.337Z" fill="black"/>
<path d="M193.406 249.862C193.591 241.733 199.695 235.17 207.318 234.904L225.115 234.283C226.565 234.235 228.017 234.315 229.453 234.527L246.825 237.088C254.489 238.218 257.43 245.726 256.659 253.932C256.659 253.932 259.657 275.169 259.657 288.924C259.657 302.679 255.021 318.7 255.021 318.7C254.91 319.21 254.704 319.481 254.302 319.459L189.857 315.769C189.471 315.747 189.177 315.389 189.209 314.977L192.62 284.39L193.406 249.862Z" fill="#F3F6F9"/>
<path d="M245.167 258.753C234.175 253.856 233.758 244.471 234.924 240.39L251.163 226.65C253.37 228.024 260.856 234.744 273.147 250.633C285.024 265.986 294.514 294.938 298.146 308.819C298.361 309.492 298.473 309.95 298.505 310.217C298.392 309.77 298.273 309.304 298.146 308.819C297.255 306.033 294.586 299.566 288.387 287.732C278.769 269.37 258.907 264.873 245.167 258.753Z" fill="#252424"/>
<path d="M210.442 254.506L222.433 242.889L210.442 231.771L192.704 237.143C192.704 237.143 183.71 246.261 182.461 265.123C181.212 283.985 147.486 334.45 155.855 339.321C164.224 344.193 194.203 329.828 199.824 320.335C205.445 310.841 210.442 254.506 210.442 254.506Z" fill="#252424"/>
<path fill-rule="evenodd" clip-rule="evenodd" d="M222.433 242.922L210.441 254.539C210.441 254.539 205.748 307.452 200.342 319.359C199.8 319.597 199.33 319.651 198.949 319.494C194.702 317.745 191.704 252.791 191.704 252.791L206.694 251.167L203.196 241.548L214.688 235.742L222.433 242.922Z" fill="black"/>
<path d="M157.978 251.417L179.213 221.562L191.205 229.307L170.095 260.41L157.978 251.417Z" fill="white"/>
<rect x="217.936" y="224.277" width="18.9867" height="28.7299" rx="9.49336" fill="#EBBAAA"/>
<path d="M257.533 217.066C265.467 217.066 271.898 210.634 271.898 202.701C271.898 194.767 265.467 188.336 257.533 188.336C249.6 188.336 243.168 194.767 243.168 202.701C243.168 210.634 249.6 217.066 257.533 217.066Z" fill="#EBBAAA"/>
<path d="M197.325 217.066C189.392 217.066 182.96 210.634 182.96 202.701C182.96 194.767 189.392 188.336 197.325 188.336C205.259 188.336 211.69 194.767 211.69 202.701C211.69 210.634 205.259 217.066 197.325 217.066Z" fill="#EBBAAA"/>
<path d="M191.437 181.702C189.113 160.578 205.654 142.118 226.905 142.118C248.174 142.118 264.72 160.606 262.368 181.745L258.563 215.946C256.768 232.087 243.124 244.296 226.884 244.296C210.629 244.296 196.979 232.065 195.201 215.908L191.437 181.702Z" fill="#F6DDD6"/>
<path d="M264.577 166.997C264.739 165.475 263.602 164.127 262.077 164.027C260.493 163.924 259.166 165.205 259.213 166.79L260.249 193.647C260.263 194.096 260.365 194.459 260.811 194.488C261.277 194.519 261.433 194.177 261.483 193.715L264.577 166.997Z" fill="#393939"/>
<path d="M242.822 196.33C244.453 196.33 245.779 197.632 245.819 199.254L245.82 199.328V202.576C245.82 204.231 244.477 205.574 242.822 205.574C241.191 205.574 239.864 204.271 239.825 202.65L239.824 202.576V199.328C239.824 197.672 241.166 196.33 242.822 196.33Z" fill="black"/>
<path d="M211.594 196.33C213.225 196.33 214.551 197.632 214.591 199.254L214.592 199.328V202.576C214.592 204.231 213.249 205.574 211.594 205.574C209.963 205.574 208.636 204.271 208.597 202.65L208.596 202.576V199.328C208.596 197.672 209.938 196.33 211.594 196.33Z" fill="black"/>
<path d="M251.31 192.52C252.961 192.4 254.398 193.641 254.519 195.292C254.637 196.919 253.435 198.337 251.821 198.494L251.747 198.5L237.893 199.513C236.241 199.633 234.805 198.392 234.684 196.741C234.565 195.114 235.768 193.696 237.382 193.539L237.456 193.533L251.31 192.52Z" fill="#393939"/>
<path d="M199.456 195.339C199.567 193.712 200.957 192.477 202.577 192.548L202.651 192.552L216.51 193.499C218.162 193.612 219.41 195.042 219.297 196.694C219.186 198.321 217.796 199.556 216.175 199.485L216.102 199.481L202.242 198.534C200.591 198.421 199.343 196.991 199.456 195.339Z" fill="#393939"/>
<path d="M225.544 202.778L229.239 204.872C228.125 206.836 227.491 208.935 227.559 210.359C227.608 211.388 227.865 211.683 228.83 211.694L228.89 211.694V215.941C225.493 215.941 223.47 213.775 223.317 210.562C223.208 208.278 224.034 205.493 225.46 202.928L225.544 202.778Z" fill="#EBBAAA"/>
<path d="M261.406 191.833C261.53 190.834 262.03 189.585 262.78 189.335C263.529 189.085 263.983 153.296 253.286 144.69C242.59 136.084 216.988 132.592 199.242 144.69C181.495 156.788 195.826 181.715 189.85 188.554C187.671 191.046 191.868 191.96 191.706 193.332L192.645 185.81C192.645 185.81 197.704 176.35 201.518 164.607C204.557 155.253 223.641 160.865 227.409 160.865C231.177 160.865 248.455 155.496 251.476 164.607C255.487 176.705 257.55 181.013 259.657 184.463C260.183 189.286 261.17 193.714 261.406 191.833Z" fill="#393939"/>
<path d="M196.239 141.241C188.457 149.238 187.07 171.562 190.889 181.733C190.889 187.422 174.139 186.307 171.382 194.987C169.136 202.055 190.483 199.338 213.334 194.987C236.186 190.637 290.681 172.541 282.265 169.909C276.915 168.236 272.233 168.682 265.908 171.562C265.908 159.068 249.664 132 237.422 132C229.027 132 226.409 134.364 221.059 136.372C215.708 138.38 208.005 129.151 196.239 141.241Z" fill="black"/>
<path fill-rule="evenodd" clip-rule="evenodd" d="M268.568 159.147C267.855 157.93 266.432 157.625 263.997 159.083C259.212 161.948 241.294 164.306 225.311 166.41C211.172 168.272 198.546 169.933 197.867 171.57C196.42 175.058 199.092 181.133 200.539 181.921C201.986 182.708 223.028 180.548 231.934 179.558C240.841 178.568 258.283 173.821 266.001 171.57C267.854 169.631 269.6 163.906 269.045 160.579C268.895 160.107 268.736 159.629 268.568 159.147Z" fill="white"/>
<path d="M237.797 224.31H216.562C218.602 226.101 223.532 229.682 226.93 229.682C230.327 229.682 235.59 226.101 237.797 224.31Z" fill="white"/>
<path d="M244.792 221.562C248.31 221.562 251.162 218.71 251.162 215.192C251.162 211.673 248.31 208.821 244.792 208.821C241.274 208.821 238.421 211.673 238.421 215.192C238.421 218.71 241.274 221.562 244.792 221.562Z" fill="#FBD2C5"/>
<path d="M210.316 221.562C213.834 221.562 216.687 218.71 216.687 215.192C216.687 211.673 213.834 208.821 210.316 208.821C206.798 208.821 203.946 211.673 203.946 215.192C203.946 218.71 206.798 221.562 210.316 221.562Z" fill="#FBD2C5"/>
</g>
</svg>
